PathFileType	4	(X/Y/Z)	/Users/gattia/Dropbox/phd_data/bike_study/processing_scripts/../mocap_collections/p017/static_002_dig-bike_study_lower_sept.17.2019_static_func_knee_and_ankle/marker_data.trc
DataRate	CameraRate	NumFrames	NumMarkers	Units	OrigDataRate	OrigDataStartFrame	OrigNumFrames
112.5	112.5	4	107	mm	112.5	297	339
Frame#	Time	Head_Front			Head_R			Head_L			Head_back			Head_top			Arm_R_1			Arm_R_2			Arm_R_3			Arm_R_4			Elbow_R_Lat			Elbow_R_Med			Forearm_R_1			Forearm_R_2			Forearm_R_3			Forearm_R_4			Rad_styl_R			Ul_styl_R			Dig_R_1			Dig_R_3			Dig_R_5			Arm_L_1			Arm_L_2			Arm_L_3			Arm_L_4			Elbow_L_Lat			Elbow_L_Med			Forearm_L_1			Forearm_L_2			Forearm_L_3			Forearm_L_4			Rad_styl_L			Ul_styl_L			Dig_L_1			Dig_L_3			Dig_L_5			xiphoid			sternal_notch			Acr_R			Acr_L			C7			T8			ASIS_R			ASIS_L			PSIS_R			PSIS_L			GT_R			Thigh_R_1			Thigh_R_2			Thigh_R_3			Thigh_R_4			Knee_R_L_Cond			Knee_R_M_Cond			GT_L			Thigh_L_1			Thigh_L_2			Thigh_L_3			Thigh_L_4			Knee_L_L_Cond			Knee_L_M_Cond			Tib_Tib_R			Shank_R_1			Shank_R_2			Shank_R_3			Shank_R_4			Ankle_R_L_Mal			Ankle_R_M_Mal			Tib_Tub_L			Shank_L_1			Shank_L_2			Shank_L_3			Shank_L_4			Ankle_L_L_Mal			Ankle_L_M_Mal			Foot_R_MH_1_Top			Foot_R_MH_5_Top			Foot_R_Calc			Foot_R_Center			Foot_L_MH_1_Top			Foot_L_MH_5_Top			Foot_L_Calc			Foot_L_Center			right_hjc			left_hjc			mid_hjc			mid_pelvis			mid_asis			mid_psis			right_kjc			left_kjc			right_ajc			left_ajc			right_met_1_floor			left_met_1_floor			right_met_5_floor			left_met_5_floor			right_calc_floor			left_calc_floor			right_mid_met_floor			left_mid_met_floor			right_ajc_floor			left_ajc_floor			right_sjc			left_sjc			right_ejc			left_ejc			right_wjc			left_wjc			
		X1	Y1	Z1	X2	Y2	Z2	X3	Y3	Z3	X4	Y4	Z4	X5	Y5	Z5	X6	Y6	Z6	X7	Y7	Z7	X8	Y8	Z8	X9	Y9	Z9	X10	Y10	Z10	X11	Y11	Z11	X12	Y12	Z12	X13	Y13	Z13	X14	Y14	Z14	X15	Y15	Z15	X16	Y16	Z16	X17	Y17	Z17	X18	Y18	Z18	X19	Y19	Z19	X20	Y20	Z20	X21	Y21	Z21	X22	Y22	Z22	X23	Y23	Z23	X24	Y24	Z24	X25	Y25	Z25	X26	Y26	Z26	X27	Y27	Z27	X28	Y28	Z28	X29	Y29	Z29	X30	Y30	Z30	X31	Y31	Z31	X32	Y32	Z32	X33	Y33	Z33	X34	Y34	Z34	X35	Y35	Z35	X36	Y36	Z36	X37	Y37	Z37	X38	Y38	Z38	X39	Y39	Z39	X40	Y40	Z40	X41	Y41	Z41	X42	Y42	Z42	X43	Y43	Z43	X44	Y44	Z44	X45	Y45	Z45	X46	Y46	Z46	X47	Y47	Z47	X48	Y48	Z48	X49	Y49	Z49	X50	Y50	Z50	X51	Y51	Z51	X52	Y52	Z52	X53	Y53	Z53	X54	Y54	Z54	X55	Y55	Z55	X56	Y56	Z56	X57	Y57	Z57	X58	Y58	Z58	X59	Y59	Z59	X60	Y60	Z60	X61	Y61	Z61	X62	Y62	Z62	X63	Y63	Z63	X64	Y64	Z64	X65	Y65	Z65	X66	Y66	Z66	X67	Y67	Z67	X68	Y68	Z68	X69	Y69	Z69	X70	Y70	Z70	X71	Y71	Z71	X72	Y72	Z72	X73	Y73	Z73	X74	Y74	Z74	X75	Y75	Z75	X76	Y76	Z76	X77	Y77	Z77	X78	Y78	Z78	X79	Y79	Z79	X80	Y80	Z80	X81	Y81	Z81	X82	Y82	Z82	X83	Y83	Z83	X84	Y84	Z84	X85	Y85	Z85	X86	Y86	Z86	X87	Y87	Z87	X88	Y88	Z88	X89	Y89	Z89	X90	Y90	Z90	X91	Y91	Z91	X92	Y92	Z92	X93	Y93	Z93	X94	Y94	Z94	X95	Y95	Z95	X96	Y96	Z96	X97	Y97	Z97	X98	Y98	Z98	X99	Y99	Z99	X100	Y100	Z100	X101	Y101	Z101	X102	Y102	Z102	X103	Y103	Z103	X104	Y104	Z104	X105	Y105	Z105	X106	Y106	Z106	X107	Y107	Z107	

297	  2.631111	348.593223	1787.607332	319.896813	159.483574	1757.782213	373.751294	243.484921	1755.009751	180.300848	108.340585	1694.605820	266.839156	221.555518	1857.722201	285.517451	109.848530	1329.873367	514.478155	116.805863	1352.660055	549.155499	115.642676	1329.400209	564.794872	108.555196	1305.689413	529.919282	107.246781	1239.484368	598.293795	180.594497	1212.713518	564.454173	108.057541	1142.352563	699.922721	144.006684	1117.688629	677.840116	148.509526	1103.562528	701.686629	112.110155	1127.461714	722.584101	163.305992	1129.637526	825.923456	129.470275	1067.052496	793.074821	177.918209	1128.768216	891.091627	114.374107	1062.232810	891.082594	123.943948	1026.750113	861.038304	192.141742	1340.776496	-36.369447	154.840092	1335.510087	-17.999052	152.405637	1311.226720	-30.917722	189.221111	1316.036584	-50.113023	146.332902	1230.099680	-59.621517	194.945317	1197.431899	 -5.509789	163.028586	1171.118604	-171.045309	172.876542	1130.423177	-145.446555	181.283607	1117.587602	-169.032299	171.734323	1158.170880	-194.320960	244.807640	1146.995833	-286.127319	212.535256	1080.122483	-258.132234	294.107468	1137.513061	-348.716957	227.975182	1077.193272	-373.482735	230.951533	1036.683765	-346.653818	317.371122	1296.359411	279.525797	279.215076	1492.435553	280.902350	160.959373	1535.880563	444.460699	202.943662	1528.835742	 78.316407	140.292903	1554.959287	276.064824	 94.807424	1362.867124	272.445662	279.228838	1032.399601	416.776800	292.865313	1025.020754	146.597486	100.039326	1067.165169	323.918436	104.374299	1072.513378	203.706564	205.678801	950.610074	465.227614	185.822171	779.238273	471.320062	228.451570	776.443494	476.038852	226.454379	746.176527	476.093279	183.686775	747.577089	471.469241	193.944165	521.944222	440.603219	230.106072	496.065395	349.950556	208.246910	923.424451	 89.903063	240.938813	784.024795	 85.197177	198.611428	779.894210	 86.845664	201.559098	748.756704	 86.430624	244.101923	752.572014	 84.607401	221.551764	512.093318	128.874764	240.598475	493.494806	225.261545	223.903192	447.658395	402.519807	105.456622	422.765104	442.204291	144.895799	413.450908	457.725735	137.333500	383.839968	458.866756	 97.593845	393.272875	443.711084	109.258547	126.670771	427.090815	146.657869	131.610723	347.462719	238.702541	441.905134	176.438823	157.685018	423.809396	111.134010	117.760444	430.868705	127.754813	111.300313	401.623142	126.080671	150.328164	394.487021	108.536252	116.701603	121.600335	143.876530	156.407561	124.416694	218.501660	276.152130	 57.395012	391.336833	215.753272	 51.429834	488.377756	 62.269669	 68.798873	357.667600	155.924987	 61.163940	460.678161	301.646435	 52.642074	164.189332	242.103638	 49.941225	 63.175312	 81.316038	 64.769167	209.173509	169.104789	 64.128902	 99.360975	219.586960	961.876687	367.824357	228.587769	957.006249	189.491433	224.087365	959.441468	278.657895	194.126944	1049.274726	272.749822	286.047076	1028.710178	281.687143	102.206813	1069.839274	263.812500	201.436776	510.363641	395.276888	209.008309	492.765781	177.068154	127.958208	129.140747	387.276767	136.554582	123.008515	181.189095	276.152130	  0.000000	391.336833	301.646435	  0.000000	164.189332	215.753272	  0.000000	488.377756	242.103638	  0.000000	 63.175312	 62.269669	  0.000000	357.667600	 81.316038	  0.000000	209.173509	245.952701	  0.000000	439.857295	271.875037	  0.000000	113.682322	127.958208	  0.000000	387.276767	136.554582	  0.000000	181.189095	160.959373	1466.880563	444.460699	202.943662	1459.835742	 78.316407	143.920639	1226.098943	581.373984	170.639109	1213.765789	-32.565653	146.388133	1098.345011	809.499139	228.671448	1113.559158	-272.129777
298	  2.640000	348.650891	1787.616443	319.868182	159.544219	1757.791465	373.731577	243.541083	1754.992517	180.279001	108.401622	1694.596460	266.831075	221.608808	1857.720829	285.482342	109.893472	1329.877652	514.485379	116.857892	1352.663554	549.162745	115.693019	1329.403289	564.801074	108.599890	1305.693958	529.926394	107.291515	1239.487946	598.299570	180.633027	1212.710391	564.450469	108.101929	1142.352698	699.924207	144.046851	1117.687028	677.839693	148.545649	1103.559084	701.681270	112.154959	1127.461307	722.585419	163.358478	1129.629847	825.919597	129.515831	1067.049052	793.074249	177.974751	1128.759181	891.093881	114.428840	1062.226757	891.081374	123.991949	1026.745721	861.035781	192.172425	1340.746199	-36.352885	154.869707	1335.483982	-17.982629	152.432600	1311.200490	-30.899189	189.248950	1316.005767	-50.095730	146.351104	1230.072567	-59.598163	194.963375	1197.404046	 -5.486844	163.037010	1171.085362	-171.018413	172.857051	1130.374653	-145.439245	181.286500	1117.551182	-169.003991	171.740932	1158.137666	-194.292197	244.807175	1146.946977	-286.104158	212.532163	1080.077841	-258.100831	294.100867	1137.458809	-348.696545	227.959336	1077.138030	-373.454461	230.937601	1036.631072	-346.622789	317.398634	1296.335865	279.537555	279.263035	1492.421072	280.904388	161.021476	1535.879861	444.464474	202.990800	1528.812210	 78.318574	140.354033	1554.959699	276.067257	 94.849476	1362.872388	272.452347	279.244891	1032.394678	416.790764	292.894140	1025.014340	146.606855	100.061386	1067.165391	323.922492	104.401887	1072.514217	203.711241	205.692274	950.608361	465.236389	185.830081	779.236650	471.325764	228.458983	776.440659	476.045057	226.460571	746.173997	476.098812	183.693095	747.576123	471.473851	193.945072	521.944015	440.606036	230.108481	496.064851	349.953480	208.273547	923.423398	 89.911875	240.962129	784.021628	 85.210433	198.633559	779.892679	 86.853255	201.577796	748.756565	 86.435446	244.120706	752.570366	 84.610896	221.566360	512.092262	128.878959	240.612336	493.493551	225.265384	223.904451	447.658449	402.523396	105.456681	422.765981	442.206501	144.895746	413.451299	457.727782	137.333066	383.840393	458.868451	 97.593463	393.273717	443.713154	109.258368	126.671603	427.090594	146.658449	131.611348	347.462972	238.714265	441.903138	176.441977	157.697549	423.810200	111.136852	117.773447	430.871080	127.757478	111.312187	401.625142	126.083280	150.339900	394.488096	108.538806	116.698861	121.606684	143.871826	156.408781	124.417079	218.502488	276.151770	 57.395216	391.336007	215.753551	 51.430391	488.377733	 62.269721	 68.799527	357.667388	155.924987	 61.164649	460.678164	301.646082	 52.642406	164.188877	242.103860	 49.941554	 63.175504	 81.316575	 64.769437	209.173581	169.104853	 64.128692	 99.361425	219.602648	961.872044	367.835229	228.611888	957.000622	189.499273	224.107268	959.436333	278.667251	194.150576	1049.272156	272.757838	286.069516	1028.704509	281.698809	102.231636	1069.839804	263.816867	201.438605	510.363383	395.279758	209.022317	492.764737	177.072171	127.958409	129.141476	387.276783	136.553821	123.011882	181.187157	276.151770	  0.000000	391.336007	301.646082	  0.000000	164.188877	215.753551	  0.000000	488.377733	242.103860	  0.000000	 63.175504	 62.269721	  0.000000	357.667388	 81.316575	  0.000000	209.173581	245.952661	  0.000000	439.856870	271.874971	  0.000000	113.682191	127.958409	  0.000000	387.276783	136.553821	  0.000000	181.187157	161.021476	1466.879861	444.464474	202.990800	1459.812210	 78.318574	143.962271	1226.099169	581.375020	170.657240	1213.738306	-32.542504	146.437154	1098.339449	809.496923	228.669669	1113.512409	-272.102494
299	  2.648889	348.712255	1787.623055	319.841636	159.607775	1757.802998	373.713791	243.600357	1754.974981	180.259428	108.463816	1694.590290	266.824706	221.667379	1857.719953	285.449326	109.938329	1329.880284	514.493100	116.909497	1352.665458	549.170425	115.743257	1329.404838	564.807916	108.644557	1305.696940	529.934087	107.336049	1239.489742	598.304734	180.672553	1212.706238	564.447964	108.145418	1142.350144	699.924308	144.087077	1117.683619	677.838645	148.581867	1103.553805	701.675688	112.198564	1127.457833	722.585280	163.407218	1129.619588	825.916431	129.559301	1067.042723	793.072264	178.025583	1128.746665	891.095504	114.477912	1062.216696	891.078169	124.036297	1026.737575	861.031190	192.201942	1340.717757	-36.335675	154.898787	1335.459049	-17.964522	152.459094	1311.175291	-30.878808	189.275823	1315.976798	-50.077618	146.369342	1230.047065	-59.574444	194.981943	1197.377738	 -5.462902	163.045114	1171.053366	-170.990652	172.826302	1130.325729	-145.434503	181.288595	1117.515559	-168.974364	171.746950	1158.104869	-194.262801	244.806320	1146.897290	-286.080206	212.527892	1080.033000	-258.067720	294.093714	1137.402153	-348.675507	227.941802	1077.080349	-373.425293	230.921167	1036.575714	-346.588721	317.426574	1296.313178	279.550211	279.311337	1492.407661	280.907964	161.083595	1535.877949	444.469419	203.036737	1528.789992	 78.322212	140.415003	1554.960018	276.071154	 94.892694	1362.877411	272.460554	279.260081	1032.388731	416.805091	292.920675	1025.008060	146.615766	100.082557	1067.165970	323.926728	104.427766	1072.515412	203.716226	205.704605	950.606299	465.244973	185.836077	779.234837	471.330310	228.464669	776.437334	476.049929	226.464982	746.171167	476.103263	183.697584	747.574778	471.477202	193.945199	521.943551	440.608692	230.110354	496.063813	349.956029	208.298054	923.422701	 89.920172	240.983616	784.018998	 85.221385	198.653710	779.891637	 86.859382	201.595292	748.756482	 86.439229	244.138502	752.569028	 84.613425	221.580298	512.091283	128.882775	240.626078	493.492620	225.268949	223.904999	447.658300	402.526824	105.456258	422.766463	442.208658	144.895257	413.451469	457.729838	137.332392	383.840511	458.870211	 97.592686	393.274091	443.715163	109.257635	126.672260	427.090295	146.658813	131.611728	347.463089	238.725343	441.901210	176.444813	157.709441	423.810918	111.139091	117.785912	430.873246	127.759840	111.323453	401.627029	126.085362	150.350855	394.488252	108.542178	116.697126	121.611279	143.868660	156.409841	124.417350	218.503153	276.151521	 57.395228	391.335275	215.753577	 51.430716	488.377705	 62.269696	 68.799789	357.666910	155.924646	 61.165198	460.678089	301.645953	 52.642569	164.188643	242.104151	 49.941764	 63.175627	 81.316906	 64.769715	209.173223	169.105060	 64.128223	 99.361701	219.616923	961.866641	367.846130	228.633652	956.995000	189.506599	224.125288	959.430820	278.676364	194.172770	1049.269543	272.765953	286.090378	1028.698396	281.710428	102.255161	1069.840691	263.821477	201.439782	510.362764	395.282361	209.035866	492.763952	177.075862	127.958224	129.141994	387.276692	136.553484	123.014315	181.185906	276.151521	  0.000000	391.335275	301.645953	  0.000000	164.188643	215.753577	  0.000000	488.377705	242.104151	  0.000000	 63.175627	 62.269696	  0.000000	357.666910	 81.316906	  0.000000	209.173223	245.952549	  0.000000	439.856490	271.875052	  0.000000	113.682135	127.958224	  0.000000	387.276692	136.553484	  0.000000	181.185906	161.083595	1466.877949	444.469419	203.036737	1459.789992	 78.322212	144.004301	1226.097990	581.376349	170.675642	1213.712401	-32.518673	146.483260	1098.331155	809.494347	228.667106	1113.465145	-272.073963
300	  2.657778	348.777402	1787.627223	319.817079	159.674434	1757.816349	373.698401	243.662433	1754.957500	180.242321	108.527233	1694.587133	266.820378	221.731124	1857.719518	285.418809	109.983070	1329.881244	514.500810	116.960465	1352.665619	549.178051	115.793195	1329.404700	564.814947	108.689174	1305.698248	529.941824	107.380144	1239.489686	598.308955	180.712852	1212.700901	564.446534	108.187758	1142.345172	699.923119	144.127074	1117.678440	677.836932	148.617930	1103.546733	701.669970	112.240778	1127.451718	722.583763	163.452587	1129.606948	825.913760	129.600735	1067.033767	793.069007	178.071214	1128.731106	891.096373	114.521678	1062.203460	891.073179	124.077234	1026.726263	861.024816	192.229738	1340.691574	-36.318301	154.926789	1335.435807	-17.945149	152.484556	1311.151539	-30.856932	189.301167	1315.950037	-50.059012	146.387352	1230.023568	-59.550696	195.000383	1197.353340	 -5.438136	163.052844	1171.022491	-170.962351	172.786193	1130.277308	-145.431210	181.290009	1117.480855	-168.943405	171.752500	1158.072414	-194.233060	244.805942	1146.846650	-286.055148	212.522351	1079.988096	-258.033165	294.088050	1137.342385	-348.652714	227.924658	1077.020231	-373.395086	230.903193	1036.517662	-346.551466	317.455046	1296.291119	279.563197	279.359955	1492.395065	280.912842	161.144348	1535.875918	444.474807	203.081372	1528.769383	 78.327264	140.475932	1554.960498	276.076489	 94.936922	1362.882494	272.470079	279.274424	1032.381968	416.819501	292.945043	1025.001698	146.624223	100.102783	1067.166980	323.930970	104.451983	1072.517041	203.721406	205.715885	950.603970	465.253353	185.840489	779.232852	471.333672	228.468922	776.433673	476.053713	226.467917	746.168143	476.106876	183.700583	747.573165	471.479465	193.944805	521.942823	440.611259	230.111985	496.062407	349.958375	208.320642	923.422328	 89.927926	241.003436	784.017053	 85.229984	198.672145	779.891110	 86.864308	201.611855	748.756564	 86.442197	244.155570	752.568065	 84.615342	221.593352	512.090460	128.886345	240.639262	493.491916	225.272359	223.905150	447.657953	402.530083	105.455669	422.766589	442.210669	144.894636	413.451445	457.731905	137.331746	383.840317	458.871874	 97.591837	393.274074	443.717051	109.256556	126.672737	427.089906	146.659154	131.611938	347.463121	238.735613	441.899415	176.447555	157.720512	423.811699	111.140945	117.797626	430.875411	127.762061	111.333926	401.628928	126.087197	150.360994	394.488047	108.545890	116.696344	121.614406	143.866799	156.410741	124.417547	218.503671	276.151619	 57.395258	391.334706	215.753373	 51.430780	488.377647	 62.269654	 68.799844	357.666205	155.924053	 61.165569	460.677935	301.646076	 52.642548	164.188744	242.104572	 49.941855	 63.175670	 81.317087	 64.770110	209.172470	169.105499	 64.127672	 99.361799	219.629785	961.860719	367.856941	228.653131	956.989343	189.513482	224.141458	959.425031	278.685211	194.193558	1049.266921	272.774025	286.109734	1028.691833	281.721862	102.277383	1069.842010	263.826188	201.440585	510.361839	395.284817	209.048655	492.763419	177.079352	127.957855	129.142338	387.276514	136.553542	123.015976	181.185235	276.151619	  0.000000	391.334706	301.646076	  0.000000	164.188744	215.753373	  0.000000	488.377647	242.104572	  0.000000	 63.175670	 62.269654	  0.000000	357.666205	 81.317087	  0.000000	209.172470	245.952496	  0.000000	439.856176	271.875324	  0.000000	113.682207	127.957855	  0.000000	387.276514	136.553542	  0.000000	181.185235	161.144348	1466.875918	444.474807	203.081372	1459.769383	 78.327264	144.046498	1226.095294	581.377744	170.693867	1213.688454	-32.494416	146.526661	1098.320358	809.491384	228.664147	1113.417373	-272.044157
